<?xml version="1.0" encoding="utf-8"?>
<!-- Generator: Adobe Illustrator 25.1.0, SVG Export Plug-In . SVG Version: 6.00 Build 0)  -->
<svg version="1.1" id="Layer_1" xmlns="http://www.w3.org/2000/svg" xmlns:xlink="http://www.w3.org/1999/xlink" x="0px" y="0px"
	 viewBox="0 0 252 144" style="enable-background:new 0 0 252 144;" xml:space="preserve">
<style type="text/css">
	.st0{fill:#A50064;stroke:#B53682;stroke-miterlimit:10;}
	.st1{fill:none;stroke:url(#SVGID_1_);stroke-width:2;stroke-miterlimit:10;}
</style>
<g>
	<g>
		<path class="st0" d="M66.75,66.31h-2.88l-2.14,3.08h13.32L67.9,58.55c-0.25-0.38-0.56-0.7-0.92-0.96s-0.81-0.39-1.34-0.39
			c-0.56,0-1.02,0.14-1.39,0.41s-0.67,0.59-0.91,0.93L56,69.39h4.19l5.38-7.96l2.05,3.17c0.19,0.29,0.4,0.59,0.61,0.92
			c0.21,0.33,0.4,0.6,0.56,0.82c-0.27-0.02-0.6-0.04-0.97-0.04C67.45,66.31,67.09,66.31,66.75,66.31z"/>
		<path class="st0" d="M79.49,62.35l7.02,6.59c0.27,0.27,0.52,0.45,0.74,0.53c0.22,0.08,0.45,0.12,0.68,0.12
			c0.25,0,0.5-0.04,0.74-0.13c0.24-0.08,0.45-0.22,0.62-0.4c0.18-0.18,0.32-0.42,0.43-0.71c0.11-0.29,0.16-0.63,0.16-1.02V46.07
			h-3.24v18.38l-7.02-6.59c-0.29-0.27-0.54-0.45-0.76-0.53c-0.22-0.08-0.44-0.12-0.66-0.12c-0.25,0-0.49,0.04-0.73,0.13
			c-0.23,0.08-0.44,0.22-0.62,0.39c-0.18,0.18-0.32,0.41-0.43,0.7c-0.11,0.29-0.16,0.63-0.16,1.02v9.94h3.22V62.35z"/>
		<path class="st0" d="M102.24,66.31h-8.66l-2.28,3.08h10.67c0.87,0,1.61-0.09,2.23-0.27c0.62-0.18,1.13-0.44,1.53-0.77
			c0.4-0.33,0.69-0.75,0.87-1.24c0.18-0.49,0.27-1.04,0.27-1.65c0-1.1-0.37-1.92-1.1-2.46c-0.73-0.54-1.8-0.82-3.2-0.82h-6.23
			c-0.41,0-0.72-0.06-0.92-0.19c-0.2-0.13-0.3-0.34-0.3-0.65s0.1-0.53,0.3-0.65c0.2-0.12,0.51-0.18,0.92-0.18h7.94l2.28-3.12h-9.95
			c-0.87,0-1.61,0.09-2.23,0.27c-0.62,0.18-1.13,0.43-1.52,0.75c-0.39,0.32-0.68,0.71-0.87,1.17s-0.28,0.97-0.28,1.53
			c0,0.51,0.09,0.98,0.26,1.41c0.17,0.42,0.43,0.79,0.79,1.08c0.35,0.3,0.8,0.53,1.34,0.7c0.54,0.17,1.18,0.25,1.92,0.25h6.23
			c0.42,0,0.73,0.07,0.92,0.2c0.19,0.13,0.29,0.35,0.29,0.66c0,0.31-0.1,0.53-0.29,0.67C102.97,66.24,102.67,66.31,102.24,66.31z"/>
		<polygon class="st0" points="112.02,64.77 118.83,64.77 118.83,69.39 122.36,69.39 122.36,57.41 118.83,57.41 118.83,61.65 
			112.02,61.65 112.02,57.41 108.46,57.41 108.46,69.39 112.02,69.39 		"/>
		<path class="st0" d="M126.25,68.23c0.64,0.45,1.46,0.79,2.46,1.02c0.99,0.23,2.18,0.34,3.56,0.34c4.76,0,7.14-1.81,7.14-5.43
			v-6.76h-3.56v6.76c0,0.42-0.06,0.78-0.18,1.08c-0.12,0.3-0.32,0.54-0.59,0.73c-0.27,0.19-0.64,0.33-1.1,0.41
			c-0.46,0.08-1.03,0.13-1.71,0.13c-0.91,0-1.65-0.04-2.23-0.12c-0.57-0.08-1.01-0.21-1.33-0.39c-0.31-0.19-0.53-0.43-0.64-0.73
			c-0.11-0.3-0.17-0.67-0.17-1.11v-6.76h-3.53v6.76c0,0.91,0.15,1.7,0.45,2.37C125.14,67.21,125.61,67.77,126.25,68.23z"/>
		<polygon class="st0" points="198.71,69.41 201,66.33 184,66.32 185.78,56.79 182.25,56.79 180.49,66.32 144.96,66.31 
			144.96,57.41 141.41,57.41 141.41,69.39 179.92,69.4 177.14,84.39 187.26,84.39 190.09,81.31 181.2,81.31 183.42,69.4 		"/>
		<path class="st0" d="M83.38,78.94c-0.41-0.36-0.75-0.66-1.04-0.9c0.21-0.12,0.41-0.24,0.62-0.38s0.44-0.28,0.69-0.45
			c0.26-0.17,0.55-0.36,0.88-0.59s0.71-0.49,1.15-0.79l4.95-3.44H85.5l-3.8,2.92c-0.59,0.45-1.08,0.84-1.46,1.16
			c-0.38,0.32-0.7,0.58-0.97,0.8c0.06-0.31,0.13-0.65,0.21-1c0.08-0.36,0.15-0.72,0.22-1.09l0.46-2.78h-3.79L73.3,90h3.81l1.61-9.05
			l0.24-1.72c0.15,0.2,0.36,0.45,0.62,0.75c0.27,0.3,0.65,0.72,1.16,1.25l2.93,3.15h5.36l-4.08-3.96
			C84.31,79.8,83.79,79.3,83.38,78.94z"/>
		<path class="st0" d="M102.27,72.59c-0.31-0.26-0.74-0.39-1.28-0.39c-0.56,0-1.04,0.14-1.46,0.41c-0.41,0.28-0.76,0.58-1.06,0.93
			L89.3,84.39h4.19l6.71-7.96l1.52,3.17c0.14,0.29,0.29,0.59,0.45,0.92c0.16,0.33,0.3,0.6,0.43,0.82c-0.27-0.02-0.59-0.04-0.96-0.04
			c-0.36,0-0.72,0-1.08,0H97.7l-2.67,3.08h13.32l-5.32-10.84C102.83,73.17,102.58,72.85,102.27,72.59z"/>
		<path class="st0" d="M121.6,72.41l-1.15,6.76c-0.07,0.42-0.19,0.78-0.35,1.07c-0.17,0.3-0.4,0.54-0.71,0.73
			c-0.31,0.19-0.7,0.33-1.17,0.41c-0.47,0.08-1.05,0.13-1.74,0.13c-0.79,0-1.44-0.03-1.95-0.09c-0.51-0.06-0.92-0.15-1.23-0.29
			c-0.31-0.13-0.53-0.3-0.65-0.52c-0.13-0.22-0.19-0.48-0.19-0.79c0-0.19,0.02-0.41,0.05-0.66l1.16-6.76h-3.54l-1.15,6.76
			c-0.07,0.39-0.1,0.77-0.1,1.13c0,1.43,0.57,2.51,1.7,3.23c1.14,0.72,2.93,1.07,5.38,1.07c4.75,0,7.43-1.81,8.05-5.43l1.15-6.76
			H121.6z"/>
		<path class="st0" d="M139.81,77.88c-0.64-0.46-1.59-0.69-2.83-0.69h-6.23c-0.73,0-1.1-0.23-1.1-0.68c0-0.36,0.11-0.61,0.32-0.76
			c0.22-0.15,0.56-0.22,1.04-0.22h7.94l2.81-3.12h-9.95c-1,0-1.86,0.11-2.57,0.32c-0.71,0.21-1.29,0.52-1.74,0.9
			c-0.45,0.39-0.78,0.84-0.98,1.36c-0.21,0.52-0.31,1.08-0.31,1.69c0,0.87,0.3,1.57,0.91,2.1c0.6,0.53,1.56,0.79,2.86,0.79h6.25
			c0.72,0,1.08,0.24,1.08,0.72c0,0.35-0.11,0.6-0.33,0.77c-0.22,0.17-0.56,0.25-1.04,0.25h-8.68l-2.79,3.08h10.67
			c1.02,0,1.88-0.11,2.59-0.33c0.71-0.22,1.3-0.53,1.75-0.93c0.45-0.4,0.78-0.87,0.98-1.43c0.2-0.55,0.31-1.15,0.31-1.79
			C140.78,79.02,140.46,78.34,139.81,77.88z"/>
		<polygon class="st0" points="154.03,72.41 153.31,76.65 146.48,76.65 147.22,72.41 143.67,72.41 141.63,84.39 145.2,84.39 
			145.97,79.77 152.8,79.77 152.01,84.39 155.54,84.39 157.57,72.41 		"/>
		<path class="st0" d="M169.79,72.59c-0.31-0.26-0.74-0.39-1.27-0.39c-0.56,0-1.04,0.14-1.46,0.41s-0.76,0.58-1.06,0.93l-9.18,10.84
			h4.19l6.71-7.96l1.52,3.17c0.14,0.29,0.28,0.59,0.44,0.92s0.3,0.6,0.43,0.82c-0.27-0.02-0.59-0.04-0.96-0.04
			c-0.36,0-0.72,0-1.08,0h-2.86l-2.67,3.08h13.32l-5.32-10.84C170.36,73.17,170.1,72.85,169.79,72.59z"/>
	</g>
	<g>
		<linearGradient id="SVGID_1_" gradientUnits="userSpaceOnUse" x1="54" y1="68" x2="203" y2="68">
			<stop  offset="0" style="stop-color:#F2189B"/>
			<stop  offset="0.3874" style="stop-color:#468227"/>
			<stop  offset="0.5153" style="stop-color:#0CA600"/>
			<stop  offset="1" style="stop-color:#730045"/>
			<stop  offset="1" style="stop-color:#0B3133"/>
			<stop  offset="1" style="stop-color:#590036"/>
		</linearGradient>
		<path class="st1" d="M190,90H67c-6.6,0-12-5.4-12-12V58c0-6.6,5.4-12,12-12h123c6.6,0,12,5.4,12,12v20C202,84.6,196.6,90,190,90z"
			/>
	</g>
</g>
</svg>
